<?xml version="1.0" encoding="UTF-8"?><svg id="Layer_2" xmlns="http://www.w3.org/2000/svg" viewBox="0 0 66.27 44.342"><defs><style>.cls-1{fill:#fff;}</style></defs><g id="Layer_3"><path class="cls-1" d="M33.225,44.342H3.42l-3.42-4.749,5.768-3.987L0,30.687s3.93-4.537,4.393-6.428c.483-1.976-.973-8.077-.973-8.077l3.281-2.969L0,10.753,1.018,5.918l7.04-1.442L3.42,0h29.805V44.342Z"/><path class="cls-1" d="M61.068,0h-27.843V44.342h27.843l-2.772-3.477,7.973-5.429s-5.652-4.958-6.6-7.211c-.774-1.84-.441-7.973-.441-7.973l4.241-1.272-5.514-6.277,5.853-6.022-7.125-2.036,8.906-1.188-4.523-3.459Z"/></g></svg>